<svg width="50" height="22" viewBox="0 0 50 22" fill="none" xmlns="http://www.w3.org/2000/svg">
<path d="M19.3239 8.27273H13.7159C13.6761 7.80871 13.5701 7.38778 13.3977 7.00994C13.232 6.6321 13 6.30729 12.7017 6.03551C12.41 5.7571 12.0554 5.54498 11.6378 5.39915C11.2202 5.24668 10.7462 5.17045 10.2159 5.17045C9.28788 5.17045 8.50237 5.39583 7.85938 5.84659C7.22301 6.29735 6.73911 6.94365 6.40767 7.78551C6.08286 8.62737 5.92045 9.63826 5.92045 10.8182C5.92045 12.0644 6.08617 13.1084 6.41761 13.9503C6.75568 14.7855 7.2429 15.4152 7.87926 15.8395C8.51563 16.2571 9.28125 16.4659 10.1761 16.4659C10.6866 16.4659 11.1439 16.4029 11.5483 16.277C11.9527 16.1444 12.304 15.9555 12.6023 15.7102C12.9006 15.465 13.1425 15.17 13.3281 14.8253C13.5204 14.474 13.6496 14.0795 13.7159 13.642L19.3239 13.6818C19.2576 14.5436 19.0156 15.4219 18.598 16.3168C18.1804 17.205 17.5871 18.027 16.8182 18.7827C16.0559 19.5317 15.1113 20.1349 13.9844 20.5923C12.8575 21.0497 11.5483 21.2784 10.0568 21.2784C8.1875 21.2784 6.51042 20.8774 5.02557 20.0753C3.54735 19.2732 2.37737 18.0933 1.51562 16.5355C0.660511 14.9777 0.232955 13.072 0.232955 10.8182C0.232955 8.55114 0.670455 6.64205 1.54545 5.09091C2.42045 3.53314 3.60038 2.35653 5.08523 1.56108C6.57008 0.758995 8.22727 0.357954 10.0568 0.357954C11.3428 0.357954 12.526 0.533616 13.6065 0.884942C14.687 1.23627 15.6349 1.75 16.4503 2.42614C17.2656 3.09564 17.9219 3.92093 18.419 4.90199C18.9162 5.88305 19.2178 7.00663 19.3239 8.27273ZM40.8434 8.27273H35.2354C35.1957 7.80871 35.0896 7.38778 34.9173 7.00994C34.7515 6.6321 34.5195 6.30729 34.2212 6.03551C33.9296 5.7571 33.5749 5.54498 33.1573 5.39915C32.7397 5.24668 32.2657 5.17045 31.7354 5.17045C30.8074 5.17045 30.0219 5.39583 29.3789 5.84659C28.7425 6.29735 28.2586 6.94365 27.9272 7.78551C27.6024 8.62737 27.44 9.63826 27.44 10.8182C27.44 12.0644 27.6057 13.1084 27.9371 13.9503C28.2752 14.7855 28.7624 15.4152 29.3988 15.8395C30.0352 16.2571 30.8008 16.4659 31.6957 16.4659C32.2061 16.4659 32.6635 16.4029 33.0678 16.277C33.4722 16.1444 33.8235 15.9555 34.1218 15.7102C34.4201 15.465 34.6621 15.17 34.8477 14.8253C35.0399 14.474 35.1692 14.0795 35.2354 13.642L40.8434 13.6818C40.7771 14.5436 40.5352 15.4219 40.1175 16.3168C39.6999 17.205 39.1067 18.027 38.3377 18.7827C37.5754 19.5317 36.6308 20.1349 35.5039 20.5923C34.377 21.0497 33.0678 21.2784 31.5763 21.2784C29.707 21.2784 28.0299 20.8774 26.5451 20.0753C25.0669 19.2732 23.8969 18.0933 23.0352 16.5355C22.18 14.9777 21.7525 13.072 21.7525 10.8182C21.7525 8.55114 22.19 6.64205 23.065 5.09091C23.94 3.53314 25.1199 2.35653 26.6048 1.56108C28.0896 0.758995 29.7468 0.357954 31.5763 0.357954C32.8623 0.357954 34.0456 0.533616 35.1261 0.884942C36.2066 1.23627 37.1545 1.75 37.9698 2.42614C38.7852 3.09564 39.4414 3.92093 39.9386 4.90199C40.4357 5.88305 40.7373 7.00663 40.8434 8.27273Z" fill="white"/>
<path d="M46.4141 21.3182C45.6451 21.3182 44.9856 21.0497 44.4354 20.5128C43.8918 19.9692 43.6233 19.3097 43.63 18.5341C43.6233 17.7784 43.8918 17.1321 44.4354 16.5952C44.9856 16.0582 45.6451 15.7898 46.4141 15.7898C47.1432 15.7898 47.7862 16.0582 48.343 16.5952C48.9065 17.1321 49.1915 17.7784 49.1982 18.5341C49.1915 19.0511 49.0556 19.5218 48.7905 19.946C48.532 20.3636 48.1939 20.6984 47.7763 20.9503C47.3587 21.1955 46.9046 21.3182 46.4141 21.3182Z" fill="#FF0000"/>
</svg>
