<svg width="187" height="28" viewBox="0 0 187 28" fill="none" xmlns="http://www.w3.org/2000/svg">
<path d="M19.3239 9.27273H13.7159C13.6761 8.80871 13.5701 8.38778 13.3977 8.00994C13.232 7.6321 13 7.30729 12.7017 7.03551C12.41 6.7571 12.0554 6.54498 11.6378 6.39915C11.2202 6.24668 10.7462 6.17045 10.2159 6.17045C9.28788 6.17045 8.50237 6.39583 7.85938 6.84659C7.22301 7.29735 6.73911 7.94365 6.40767 8.78551C6.08286 9.62737 5.92045 10.6383 5.92045 11.8182C5.92045 13.0644 6.08617 14.1084 6.41761 14.9503C6.75568 15.7855 7.2429 16.4152 7.87926 16.8395C8.51563 17.2571 9.28125 17.4659 10.1761 17.4659C10.6866 17.4659 11.1439 17.4029 11.5483 17.277C11.9527 17.1444 12.304 16.9555 12.6023 16.7102C12.9006 16.465 13.1425 16.17 13.3281 15.8253C13.5204 15.474 13.6496 15.0795 13.7159 14.642L19.3239 14.6818C19.2576 15.5436 19.0156 16.4219 18.598 17.3168C18.1804 18.205 17.5871 19.027 16.8182 19.7827C16.0559 20.5317 15.1113 21.1349 13.9844 21.5923C12.8575 22.0497 11.5483 22.2784 10.0568 22.2784C8.1875 22.2784 6.51042 21.8774 5.02557 21.0753C3.54735 20.2732 2.37737 19.0933 1.51562 17.5355C0.660511 15.9777 0.232955 14.072 0.232955 11.8182C0.232955 9.55114 0.670455 7.64205 1.54545 6.09091C2.42045 4.53314 3.60038 3.35653 5.08523 2.56108C6.57008 1.759 8.22727 1.35795 10.0568 1.35795C11.3428 1.35795 12.526 1.53362 13.6065 1.88494C14.687 2.23627 15.6349 2.75 16.4503 3.42614C17.2656 4.09564 17.9219 4.92093 18.419 5.90199C18.9162 6.88305 19.2178 8.00663 19.3239 9.27273ZM21.9116 22V6.72727H27.4002V22H21.9116ZM24.6559 5.13636C23.9135 5.13636 23.2771 4.8911 22.7468 4.40057C22.2165 3.91004 21.9513 3.32008 21.9513 2.63068C21.9513 1.94129 22.2165 1.35133 22.7468 0.860795C23.2771 0.370265 23.9135 0.125 24.6559 0.125C25.4049 0.125 26.0413 0.370265 26.565 0.860795C27.0953 1.35133 27.3604 1.94129 27.3604 2.63068C27.3604 3.32008 27.0953 3.91004 26.565 4.40057C26.0413 4.8911 25.4049 5.13636 24.6559 5.13636ZM35.6854 13.4091V22H30.1967V6.72727H35.407V9.63068H35.5661C35.8975 8.66288 36.4808 7.90388 37.3161 7.35369C38.1579 6.8035 39.139 6.52841 40.2592 6.52841C41.3397 6.52841 42.2777 6.77699 43.0732 7.27415C43.8752 7.76468 44.495 8.44081 44.9325 9.30256C45.3767 10.1643 45.5954 11.1487 45.5888 12.2557V22H40.1001V13.4091C40.1068 12.6534 39.9145 12.0601 39.5234 11.6293C39.139 11.1984 38.602 10.983 37.9126 10.983C37.4619 10.983 37.0675 11.0824 36.7294 11.2812C36.398 11.4735 36.1428 11.7519 35.9638 12.1165C35.7848 12.4744 35.692 12.9053 35.6854 13.4091ZM55.6165 22.2784C53.9858 22.2784 52.5805 21.9669 51.4006 21.3438C50.2273 20.714 49.3224 19.8125 48.6861 18.6392C48.0563 17.4593 47.7415 16.0473 47.7415 14.4034C47.7415 12.8258 48.0597 11.447 48.696 10.267C49.3324 9.08712 50.2306 8.16903 51.3906 7.51278C52.5507 6.85653 53.9195 6.52841 55.4972 6.52841C56.6506 6.52841 57.6946 6.70739 58.6293 7.06534C59.5639 7.4233 60.3627 7.94365 61.0256 8.62642C61.6884 9.30256 62.1989 10.1245 62.5568 11.0923C62.9148 12.0601 63.0938 13.1506 63.0938 14.3636V15.6364H49.4517V12.6136H58.0426C58.036 12.1761 57.9233 11.7917 57.7045 11.4602C57.4924 11.1222 57.2041 10.8603 56.8395 10.6747C56.4815 10.4825 56.0739 10.3864 55.6165 10.3864C55.1723 10.3864 54.7647 10.4825 54.3935 10.6747C54.0223 10.8603 53.724 11.1188 53.4986 11.4503C53.2798 11.7817 53.1638 12.1695 53.1506 12.6136V15.875C53.1506 16.3655 53.2533 16.803 53.4588 17.1875C53.6643 17.572 53.9593 17.8736 54.3438 18.0923C54.7282 18.3111 55.1922 18.4205 55.7358 18.4205C56.1136 18.4205 56.4583 18.3674 56.7699 18.2614C57.0881 18.1553 57.3598 18.0028 57.5852 17.804C57.8106 17.5985 57.9763 17.3532 58.0824 17.0682H63.0938C62.9214 18.1288 62.5137 19.0502 61.8707 19.8324C61.2277 20.608 60.3759 21.2112 59.3153 21.642C58.2614 22.0663 57.0284 22.2784 55.6165 22.2784ZM84.2653 9.27273H78.6573C78.6175 8.80871 78.5115 8.38778 78.3391 8.00994C78.1734 7.6321 77.9414 7.30729 77.6431 7.03551C77.3514 6.7571 76.9968 6.54498 76.5792 6.39915C76.1616 6.24668 75.6876 6.17045 75.1573 6.17045C74.2293 6.17045 73.4438 6.39583 72.8008 6.84659C72.1644 7.29735 71.6805 7.94365 71.3491 8.78551C71.0243 9.62737 70.8619 10.6383 70.8619 11.8182C70.8619 13.0644 71.0276 14.1084 71.359 14.9503C71.6971 15.7855 72.1843 16.4152 72.8207 16.8395C73.457 17.2571 74.2227 17.4659 75.1175 17.4659C75.628 17.4659 76.0853 17.4029 76.4897 17.277C76.8941 17.1444 77.2454 16.9555 77.5437 16.7102C77.842 16.465 78.0839 16.17 78.2695 15.8253C78.4618 15.474 78.591 15.0795 78.6573 14.642L84.2653 14.6818C84.199 15.5436 83.957 16.4219 83.5394 17.3168C83.1218 18.205 82.5285 19.027 81.7596 19.7827C80.9973 20.5317 80.0527 21.1349 78.9258 21.5923C77.7989 22.0497 76.4897 22.2784 74.9982 22.2784C73.1289 22.2784 71.4518 21.8774 69.967 21.0753C68.4888 20.2732 67.3188 19.0933 66.457 17.5355C65.6019 15.9777 65.1744 14.072 65.1744 11.8182C65.1744 9.55114 65.6119 7.64205 66.4869 6.09091C67.3619 4.53314 68.5418 3.35653 70.0266 2.56108C71.5115 1.759 73.1687 1.35795 74.9982 1.35795C76.2842 1.35795 77.4674 1.53362 78.5479 1.88494C79.6284 2.23627 80.5764 2.75 81.3917 3.42614C82.207 4.09564 82.8633 4.92093 83.3604 5.90199C83.8576 6.88305 84.1592 8.00663 84.2653 9.27273ZM86.853 22V6.72727H92.1825V9.63068H92.3416C92.62 8.55682 93.0608 7.77131 93.6641 7.27415C94.2739 6.77699 94.9865 6.52841 95.8018 6.52841C96.0405 6.52841 96.2758 6.5483 96.5078 6.58807C96.7464 6.62121 96.9751 6.67093 97.1939 6.73722V11.4205C96.9221 11.3277 96.5874 11.258 96.1896 11.2116C95.7919 11.1652 95.4505 11.142 95.1655 11.142C94.6286 11.142 94.1446 11.2647 93.7138 11.5099C93.2895 11.7486 92.9548 12.0866 92.7095 12.5241C92.4643 12.955 92.3416 13.4621 92.3416 14.0455V22H86.853ZM98.9936 22V6.72727H104.482V22H98.9936ZM101.738 5.13636C100.996 5.13636 100.359 4.8911 99.8288 4.40057C99.2985 3.91004 99.0334 3.32008 99.0334 2.63068C99.0334 1.94129 99.2985 1.35133 99.8288 0.860795C100.359 0.370265 100.996 0.125 101.738 0.125C102.487 0.125 103.123 0.370265 103.647 0.860795C104.177 1.35133 104.442 1.94129 104.442 2.63068C104.442 3.32008 104.177 3.91004 103.647 4.40057C103.123 4.8911 102.487 5.13636 101.738 5.13636ZM116.387 6.72727V10.7045H106.324V6.72727H116.387ZM108.273 3.06818H113.762V17.0881C113.762 17.3002 113.798 17.4792 113.871 17.625C113.944 17.7642 114.057 17.8703 114.209 17.9432C114.362 18.0095 114.557 18.0426 114.796 18.0426C114.962 18.0426 115.154 18.0227 115.373 17.983C115.598 17.9432 115.764 17.91 115.87 17.8835L116.665 21.7415C116.42 21.8144 116.069 21.9039 115.611 22.0099C115.16 22.116 114.623 22.1856 114 22.2188C112.741 22.285 111.684 22.1558 110.828 21.831C109.973 21.4995 109.33 20.9792 108.9 20.2699C108.469 19.5606 108.26 18.6723 108.273 17.6051V3.06818ZM118.626 22V6.72727H124.115V22H118.626ZM121.371 5.13636C120.628 5.13636 119.992 4.8911 119.462 4.40057C118.931 3.91004 118.666 3.32008 118.666 2.63068C118.666 1.94129 118.931 1.35133 119.462 0.860795C119.992 0.370265 120.628 0.125 121.371 0.125C122.12 0.125 122.756 0.370265 123.28 0.860795C123.81 1.35133 124.075 1.94129 124.075 2.63068C124.075 3.32008 123.81 3.91004 123.28 4.40057C122.756 4.8911 122.12 5.13636 121.371 5.13636ZM136.775 27.7273V19.4943H136.696C136.484 20.0114 136.179 20.4754 135.781 20.8864C135.39 21.2907 134.913 21.6122 134.349 21.8509C133.792 22.0829 133.156 22.1989 132.44 22.1989C131.353 22.1989 130.352 21.9138 129.437 21.3438C128.529 20.7737 127.8 19.9086 127.25 18.7486C126.706 17.5885 126.434 16.1269 126.434 14.3636C126.434 12.5208 126.719 11.0227 127.289 9.86932C127.866 8.71591 128.609 7.87074 129.517 7.33381C130.431 6.79688 131.393 6.52841 132.4 6.52841C133.156 6.52841 133.819 6.66098 134.389 6.92614C134.959 7.18466 135.436 7.53267 135.821 7.97017C136.205 8.40104 136.497 8.875 136.696 9.39205H136.815V6.72727H142.264V27.7273H136.775ZM134.468 17.983C134.972 17.983 135.403 17.8371 135.761 17.5455C136.126 17.2472 136.404 16.8295 136.596 16.2926C136.795 15.7491 136.895 15.1061 136.895 14.3636C136.895 13.608 136.795 12.9616 136.596 12.4247C136.404 11.8812 136.126 11.4669 135.761 11.1818C135.403 10.8902 134.972 10.7443 134.468 10.7443C133.965 10.7443 133.534 10.8902 133.176 11.1818C132.824 11.4669 132.553 11.8812 132.36 12.4247C132.175 12.9616 132.082 13.608 132.082 14.3636C132.082 15.1193 132.175 15.7689 132.36 16.3125C132.553 16.8494 132.824 17.2637 133.176 17.5554C133.534 17.8404 133.965 17.983 134.468 17.983ZM154.944 15.3182V6.72727H160.433V22H155.222V19.0966H155.063C154.732 20.071 154.152 20.8333 153.323 21.3835C152.495 21.9271 151.51 22.1989 150.37 22.1989C149.303 22.1989 148.368 21.9536 147.566 21.4631C146.771 20.9725 146.151 20.2964 145.707 19.4347C145.269 18.5729 145.047 17.5852 145.04 16.4716V6.72727H150.529V15.3182C150.536 16.0739 150.728 16.6671 151.106 17.098C151.49 17.5289 152.027 17.7443 152.717 17.7443C153.174 17.7443 153.568 17.6482 153.9 17.456C154.238 17.2571 154.496 16.9787 154.675 16.6207C154.861 16.2562 154.951 15.822 154.944 15.3182ZM170.542 22.2784C168.912 22.2784 167.506 21.9669 166.326 21.3438C165.153 20.714 164.248 19.8125 163.612 18.6392C162.982 17.4593 162.667 16.0473 162.667 14.4034C162.667 12.8258 162.985 11.447 163.622 10.267C164.258 9.08712 165.156 8.16903 166.316 7.51278C167.476 6.85653 168.845 6.52841 170.423 6.52841C171.576 6.52841 172.62 6.70739 173.555 7.06534C174.49 7.4233 175.288 7.94365 175.951 8.62642C176.614 9.30256 177.125 10.1245 177.483 11.0923C177.841 12.0601 178.02 13.1506 178.02 14.3636V15.6364H164.377V12.6136H172.968C172.962 12.1761 172.849 11.7917 172.63 11.4602C172.418 11.1222 172.13 10.8603 171.765 10.6747C171.407 10.4825 171 10.3864 170.542 10.3864C170.098 10.3864 169.69 10.4825 169.319 10.6747C168.948 10.8603 168.65 11.1188 168.424 11.4503C168.206 11.7817 168.09 12.1695 168.076 12.6136V15.875C168.076 16.3655 168.179 16.803 168.385 17.1875C168.59 17.572 168.885 17.8736 169.27 18.0923C169.654 18.3111 170.118 18.4205 170.662 18.4205C171.039 18.4205 171.384 18.3674 171.696 18.2614C172.014 18.1553 172.286 18.0028 172.511 17.804C172.736 17.5985 172.902 17.3532 173.008 17.0682H178.02C177.847 18.1288 177.44 19.0502 176.797 19.8324C176.154 20.608 175.302 21.2112 174.241 21.642C173.187 22.0663 171.954 22.2784 170.542 22.2784Z" fill="white"/>
<path d="M183.242 22.3182C182.473 22.3182 181.814 22.0497 181.263 21.5128C180.72 20.9692 180.451 20.3097 180.458 19.5341C180.451 18.7784 180.72 18.1321 181.263 17.5952C181.814 17.0582 182.473 16.7898 183.242 16.7898C183.971 16.7898 184.614 17.0582 185.171 17.5952C185.735 18.1321 186.02 18.7784 186.026 19.5341C186.02 20.0511 185.884 20.5218 185.619 20.946C185.36 21.3636 185.022 21.6984 184.604 21.9503C184.187 22.1955 183.733 22.3182 183.242 22.3182Z" fill="#FF0000"/>
</svg>
